<?xml version="1.0" encoding="UTF-8" standalone="no"?>
<!DOCTYPE svg PUBLIC "-//W3C//DTD SVG 1.1//EN"
 "http://www.w3.org/Graphics/SVG/1.1/DTD/svg11.dtd">
<!-- Generated by graphviz version 12.0.0 (20240704.0754)
 -->
<!-- Pages: 1 -->
<svg width="1292pt" height="244pt"
 viewBox="0.00 0.00 1291.90 244.00" xmlns="http://www.w3.org/2000/svg" xmlns:xlink="http://www.w3.org/1999/xlink">
<g id="graph0" class="graph" transform="scale(1 1) rotate(0) translate(4 240)">
<polygon fill="white" stroke="none" points="-4,4 -4,-240 1287.9,-240 1287.9,4 -4,4"/>
<!-- leaf0 -->
<g id="node1" class="node">
<title>leaf0</title>
<ellipse fill="none" stroke="black" cx="670.25" cy="-218" rx="62.1" ry="18"/>
<text text-anchor="start" x="632.75" y="-213.95" font-family="Times New Roman,serif" font-size="14.00">leaf 0: </text>
<text text-anchor="start" x="669.5" y="-213.95" font-family="Times New Roman,serif" font-weight="bold" font-size="14.00">&#45;1.206</text>
</g>
<!-- split8 -->
<g id="node2" class="node">
<title>split8</title>
<polygon fill="none" stroke="black" points="550.25,-196 385.75,-196 385.75,-160 550.25,-160 550.25,-196"/>
<text text-anchor="start" x="393.75" y="-173.95" font-family="Times New Roman,serif" font-weight="bold" font-size="14.00">Education&#45;Num</text>
<text text-anchor="start" x="489.75" y="-173.95" font-family="Times New Roman,serif" font-size="14.00"> ≤</text>
<text text-anchor="start" x="501" y="-173.95" font-family="Times New Roman,serif" font-weight="bold" font-size="14.00">12.500</text>
</g>
<!-- split8&#45;&gt;leaf0 -->
<g id="edge1" class="edge">
<title>split8&#45;&gt;leaf0</title>
<path fill="none" stroke="black" d="M550.74,-194.33C569.55,-198.08 589.25,-202.02 607.07,-205.58"/>
<polygon fill="black" stroke="black" points="606.21,-208.98 616.71,-207.5 607.59,-202.11 606.21,-208.98"/>
<text text-anchor="middle" x="571.37" y="-201.45" font-family="Times New Roman,serif" font-size="14.00">yes</text>
</g>
<!-- leaf9 -->
<g id="node3" class="node">
<title>leaf9</title>
<ellipse fill="none" stroke="black" cx="670.25" cy="-178" rx="62.1" ry="18"/>
<text text-anchor="start" x="632.75" y="-173.95" font-family="Times New Roman,serif" font-size="14.00">leaf 9: </text>
<text text-anchor="start" x="669.5" y="-173.95" font-family="Times New Roman,serif" font-weight="bold" font-size="14.00">&#45;1.172</text>
</g>
<!-- split8&#45;&gt;leaf9 -->
<g id="edge2" class="edge">
<title>split8&#45;&gt;leaf9</title>
<path fill="none" stroke="black" d="M550.74,-178C565.91,-178 581.66,-178 596.53,-178"/>
<polygon fill="black" stroke="black" points="596.2,-181.5 606.2,-178 596.2,-174.5 596.2,-181.5"/>
<text text-anchor="middle" x="571.37" y="-180.45" font-family="Times New Roman,serif" font-size="14.00">no</text>
</g>
<!-- split2 -->
<g id="node4" class="node">
<title>split2</title>
<polygon fill="none" stroke="black" points="344.25,-156 178.25,-156 178.25,-120 344.25,-120 344.25,-156"/>
<text text-anchor="start" x="186.25" y="-133.95" font-family="Times New Roman,serif" font-weight="bold" font-size="14.00">Capital_Gain</text>
<text text-anchor="start" x="268.75" y="-133.95" font-family="Times New Roman,serif" font-size="14.00"> ≤</text>
<text text-anchor="start" x="280" y="-133.95" font-family="Times New Roman,serif" font-weight="bold" font-size="14.00">7073.500</text>
</g>
<!-- split2&#45;&gt;split8 -->
<g id="edge3" class="edge">
<title>split2&#45;&gt;split8</title>
<path fill="none" stroke="black" d="M344.64,-154.1C354.41,-156.01 364.44,-157.96 374.34,-159.9"/>
<polygon fill="black" stroke="black" points="373.47,-163.29 383.95,-161.78 374.81,-156.42 373.47,-163.29"/>
<text text-anchor="middle" x="364.62" y="-161.45" font-family="Times New Roman,serif" font-size="14.00">yes</text>
</g>
<!-- leaf3 -->
<g id="node5" class="node">
<title>leaf3</title>
<ellipse fill="none" stroke="black" cx="468" cy="-138" rx="62.1" ry="18"/>
<text text-anchor="start" x="430.5" y="-133.95" font-family="Times New Roman,serif" font-size="14.00">leaf 3: </text>
<text text-anchor="start" x="467.25" y="-133.95" font-family="Times New Roman,serif" font-weight="bold" font-size="14.00">&#45;0.949</text>
</g>
<!-- split2&#45;&gt;leaf3 -->
<g id="edge4" class="edge">
<title>split2&#45;&gt;leaf3</title>
<path fill="none" stroke="black" d="M344.64,-138C361.01,-138 378.08,-138 394.1,-138"/>
<polygon fill="black" stroke="black" points="394.04,-141.5 404.04,-138 394.04,-134.5 394.04,-141.5"/>
<text text-anchor="middle" x="364.62" y="-140.45" font-family="Times New Roman,serif" font-size="14.00">no</text>
</g>
<!-- split0 -->
<g id="node6" class="node">
<title>split0</title>
<polygon fill="none" stroke="black" points="137.5,-135 0,-135 0,-99 137.5,-99 137.5,-135"/>
<text text-anchor="start" x="8" y="-112.95" font-family="Times New Roman,serif" font-weight="bold" font-size="14.00">Relationship</text>
<text text-anchor="start" x="84.5" y="-112.95" font-family="Times New Roman,serif" font-size="14.00"> ≤</text>
<text text-anchor="start" x="95.75" y="-112.95" font-family="Times New Roman,serif" font-weight="bold" font-size="14.00">3.500</text>
</g>
<!-- split0&#45;&gt;split2 -->
<g id="edge5" class="edge">
<title>split0&#45;&gt;split2</title>
<path fill="none" stroke="black" d="M137.99,-124.52C147.27,-125.55 156.93,-126.61 166.57,-127.67"/>
<polygon fill="black" stroke="black" points="166.02,-131.13 176.34,-128.75 166.79,-124.18 166.02,-131.13"/>
<text text-anchor="middle" x="157.88" y="-129.45" font-family="Times New Roman,serif" font-size="14.00">yes</text>
</g>
<!-- split1 -->
<g id="node16" class="node">
<title>split1</title>
<polygon fill="none" stroke="black" points="343.5,-116 179,-116 179,-80 343.5,-80 343.5,-116"/>
<text text-anchor="start" x="187" y="-93.95" font-family="Times New Roman,serif" font-weight="bold" font-size="14.00">Education&#45;Num</text>
<text text-anchor="start" x="283" y="-93.95" font-family="Times New Roman,serif" font-size="14.00"> ≤</text>
<text text-anchor="start" x="294.25" y="-93.95" font-family="Times New Roman,serif" font-weight="bold" font-size="14.00">12.500</text>
</g>
<!-- split0&#45;&gt;split1 -->
<g id="edge18" class="edge">
<title>split0&#45;&gt;split1</title>
<path fill="none" stroke="black" d="M137.99,-110.19C147.53,-109.24 157.46,-108.25 167.36,-107.26"/>
<polygon fill="black" stroke="black" points="167.4,-110.78 177,-106.3 166.7,-103.81 167.4,-110.78"/>
<text text-anchor="middle" x="157.88" y="-110.45" font-family="Times New Roman,serif" font-size="14.00">no</text>
</g>
<!-- leaf1 -->
<g id="node7" class="node">
<title>leaf1</title>
<ellipse fill="none" stroke="black" cx="871.75" cy="-154" rx="62.1" ry="18"/>
<text text-anchor="start" x="834.25" y="-149.95" font-family="Times New Roman,serif" font-size="14.00">leaf 1: </text>
<text text-anchor="start" x="871" y="-149.95" font-family="Times New Roman,serif" font-weight="bold" font-size="14.00">&#45;1.186</text>
</g>
<!-- split4 -->
<g id="node8" class="node">
<title>split4</title>
<polygon fill="none" stroke="black" points="748.75,-156 591.75,-156 591.75,-120 748.75,-120 748.75,-156"/>
<text text-anchor="start" x="599.75" y="-133.95" font-family="Times New Roman,serif" font-weight="bold" font-size="14.00">Education&#45;Num</text>
<text text-anchor="start" x="695.75" y="-133.95" font-family="Times New Roman,serif" font-size="14.00"> ≤</text>
<text text-anchor="start" x="707" y="-133.95" font-family="Times New Roman,serif" font-weight="bold" font-size="14.00">8.500</text>
</g>
<!-- split4&#45;&gt;leaf1 -->
<g id="edge6" class="edge">
<title>split4&#45;&gt;leaf1</title>
<path fill="none" stroke="black" d="M749.24,-144.25C766.02,-145.6 783.67,-147.02 800.15,-148.34"/>
<polygon fill="black" stroke="black" points="799.59,-151.8 809.84,-149.11 800.15,-144.83 799.59,-151.8"/>
<text text-anchor="middle" x="769.12" y="-148.45" font-family="Times New Roman,serif" font-size="14.00">yes</text>
</g>
<!-- split5 -->
<g id="node12" class="node">
<title>split5</title>
<polygon fill="none" stroke="black" points="954,-132 789.5,-132 789.5,-96 954,-96 954,-132"/>
<text text-anchor="start" x="797.5" y="-109.95" font-family="Times New Roman,serif" font-weight="bold" font-size="14.00">Capital_Loss</text>
<text text-anchor="start" x="878.5" y="-109.95" font-family="Times New Roman,serif" font-size="14.00"> ≤</text>
<text text-anchor="start" x="889.75" y="-109.95" font-family="Times New Roman,serif" font-weight="bold" font-size="14.00">1789.000</text>
</g>
<!-- split4&#45;&gt;split5 -->
<g id="edge11" class="edge">
<title>split4&#45;&gt;split5</title>
<path fill="none" stroke="black" d="M749.24,-128.62C758.66,-127.48 768.36,-126.32 777.97,-125.16"/>
<polygon fill="black" stroke="black" points="778.18,-128.66 787.69,-123.99 777.35,-121.71 778.18,-128.66"/>
<text text-anchor="middle" x="769.12" y="-128.45" font-family="Times New Roman,serif" font-size="14.00">no</text>
</g>
<!-- leaf5 -->
<g id="node9" class="node">
<title>leaf5</title>
<ellipse fill="none" stroke="black" cx="1221.8" cy="-162" rx="62.1" ry="18"/>
<text text-anchor="start" x="1184.3" y="-157.95" font-family="Times New Roman,serif" font-size="14.00">leaf 5: </text>
<text text-anchor="start" x="1221.05" y="-157.95" font-family="Times New Roman,serif" font-weight="bold" font-size="14.00">&#45;1.155</text>
</g>
<!-- split7 -->
<g id="node10" class="node">
<title>split7</title>
<polygon fill="none" stroke="black" points="1103.1,-160 1010.6,-160 1010.6,-124 1103.1,-124 1103.1,-160"/>
<text text-anchor="start" x="1018.6" y="-137.95" font-family="Times New Roman,serif" font-weight="bold" font-size="14.00">Age</text>
<text text-anchor="start" x="1042.6" y="-137.95" font-family="Times New Roman,serif" font-size="14.00"> ≤</text>
<text text-anchor="start" x="1053.85" y="-137.95" font-family="Times New Roman,serif" font-weight="bold" font-size="14.00">35.500</text>
</g>
<!-- split7&#45;&gt;leaf5 -->
<g id="edge7" class="edge">
<title>split7&#45;&gt;leaf5</title>
<path fill="none" stroke="black" d="M1103.24,-147.57C1118.54,-149.45 1135.97,-151.59 1152.64,-153.63"/>
<polygon fill="black" stroke="black" points="1152.17,-157.1 1162.52,-154.85 1153.02,-150.15 1152.17,-157.1"/>
<text text-anchor="middle" x="1139.32" y="-154.45" font-family="Times New Roman,serif" font-size="14.00">yes</text>
</g>
<!-- leaf8 -->
<g id="node11" class="node">
<title>leaf8</title>
<ellipse fill="none" stroke="black" cx="1221.8" cy="-122" rx="62.1" ry="18"/>
<text text-anchor="start" x="1184.3" y="-117.95" font-family="Times New Roman,serif" font-size="14.00">leaf 8: </text>
<text text-anchor="start" x="1221.05" y="-117.95" font-family="Times New Roman,serif" font-weight="bold" font-size="14.00">&#45;1.109</text>
</g>
<!-- split7&#45;&gt;leaf8 -->
<g id="edge8" class="edge">
<title>split7&#45;&gt;leaf8</title>
<path fill="none" stroke="black" d="M1103.24,-136.43C1118.54,-134.55 1135.97,-132.41 1152.64,-130.37"/>
<polygon fill="black" stroke="black" points="1153.02,-133.85 1162.52,-129.15 1152.17,-126.9 1153.02,-133.85"/>
<text text-anchor="middle" x="1139.32" y="-134.45" font-family="Times New Roman,serif" font-size="14.00">no</text>
</g>
<!-- split5&#45;&gt;split7 -->
<g id="edge9" class="edge">
<title>split5&#45;&gt;split7</title>
<path fill="none" stroke="black" d="M954.39,-126.49C969.52,-128.8 985.01,-131.17 999.19,-133.33"/>
<polygon fill="black" stroke="black" points="998.33,-136.74 1008.75,-134.8 999.39,-129.83 998.33,-136.74"/>
<text text-anchor="middle" x="974.37" y="-132.45" font-family="Times New Roman,serif" font-size="14.00">yes</text>
</g>
<!-- leaf6 -->
<g id="node13" class="node">
<title>leaf6</title>
<ellipse fill="none" stroke="black" cx="1056.85" cy="-102" rx="62.1" ry="18"/>
<text text-anchor="start" x="1019.35" y="-97.95" font-family="Times New Roman,serif" font-size="14.00">leaf 6: </text>
<text text-anchor="start" x="1056.1" y="-97.95" font-family="Times New Roman,serif" font-weight="bold" font-size="14.00">&#45;1.005</text>
</g>
<!-- split5&#45;&gt;leaf6 -->
<g id="edge10" class="edge">
<title>split5&#45;&gt;leaf6</title>
<path fill="none" stroke="black" d="M954.39,-108.65C964.4,-107.99 974.57,-107.33 984.41,-106.68"/>
<polygon fill="black" stroke="black" points="984.52,-110.18 994.27,-106.04 984.06,-103.2 984.52,-110.18"/>
<text text-anchor="middle" x="974.37" y="-109.45" font-family="Times New Roman,serif" font-size="14.00">no</text>
</g>
<!-- split3 -->
<g id="node14" class="node">
<title>split3</title>
<polygon fill="none" stroke="black" points="551,-116 385,-116 385,-80 551,-80 551,-116"/>
<text text-anchor="start" x="393" y="-93.95" font-family="Times New Roman,serif" font-weight="bold" font-size="14.00">Capital_Gain</text>
<text text-anchor="start" x="475.5" y="-93.95" font-family="Times New Roman,serif" font-size="14.00"> ≤</text>
<text text-anchor="start" x="486.75" y="-93.95" font-family="Times New Roman,serif" font-weight="bold" font-size="14.00">5036.500</text>
</g>
<!-- split3&#45;&gt;split4 -->
<g id="edge12" class="edge">
<title>split3&#45;&gt;split4</title>
<path fill="none" stroke="black" d="M551.32,-114.44C560.85,-116.35 570.61,-118.3 580.23,-120.22"/>
<polygon fill="black" stroke="black" points="579.47,-123.63 589.96,-122.16 580.84,-116.77 579.47,-123.63"/>
<text text-anchor="middle" x="571.37" y="-121.45" font-family="Times New Roman,serif" font-size="14.00">yes</text>
</g>
<!-- leaf4 -->
<g id="node15" class="node">
<title>leaf4</title>
<ellipse fill="none" stroke="black" cx="670.25" cy="-98" rx="62.1" ry="18"/>
<text text-anchor="start" x="632.75" y="-93.95" font-family="Times New Roman,serif" font-size="14.00">leaf 4: </text>
<text text-anchor="start" x="669.5" y="-93.95" font-family="Times New Roman,serif" font-weight="bold" font-size="14.00">&#45;0.944</text>
</g>
<!-- split3&#45;&gt;leaf4 -->
<g id="edge13" class="edge">
<title>split3&#45;&gt;leaf4</title>
<path fill="none" stroke="black" d="M551.32,-98C566.21,-98 581.65,-98 596.26,-98"/>
<polygon fill="black" stroke="black" points="596.25,-101.5 606.25,-98 596.25,-94.5 596.25,-101.5"/>
<text text-anchor="middle" x="571.37" y="-100.45" font-family="Times New Roman,serif" font-size="14.00">no</text>
</g>
<!-- split1&#45;&gt;split3 -->
<g id="edge14" class="edge">
<title>split1&#45;&gt;split3</title>
<path fill="none" stroke="black" d="M343.76,-98C353.46,-98 363.42,-98 373.27,-98"/>
<polygon fill="black" stroke="black" points="373.25,-101.5 383.25,-98 373.25,-94.5 373.25,-101.5"/>
<text text-anchor="middle" x="364.62" y="-100.45" font-family="Times New Roman,serif" font-size="14.00">yes</text>
</g>
<!-- split6 -->
<g id="node18" class="node">
<title>split6</title>
<polygon fill="none" stroke="black" points="551,-76 385,-76 385,-40 551,-40 551,-76"/>
<text text-anchor="start" x="393" y="-53.95" font-family="Times New Roman,serif" font-weight="bold" font-size="14.00">Capital_Gain</text>
<text text-anchor="start" x="475.5" y="-53.95" font-family="Times New Roman,serif" font-size="14.00"> ≤</text>
<text text-anchor="start" x="486.75" y="-53.95" font-family="Times New Roman,serif" font-weight="bold" font-size="14.00">5036.500</text>
</g>
<!-- split1&#45;&gt;split6 -->
<g id="edge17" class="edge">
<title>split1&#45;&gt;split6</title>
<path fill="none" stroke="black" d="M343.76,-82.08C353.57,-80.16 363.64,-78.19 373.59,-76.25"/>
<polygon fill="black" stroke="black" points="374.14,-79.71 383.28,-74.36 372.79,-72.84 374.14,-79.71"/>
<text text-anchor="middle" x="364.62" y="-81.45" font-family="Times New Roman,serif" font-size="14.00">no</text>
</g>
<!-- leaf2 -->
<g id="node17" class="node">
<title>leaf2</title>
<ellipse fill="none" stroke="black" cx="670.25" cy="-58" rx="62.1" ry="18"/>
<text text-anchor="start" x="632.75" y="-53.95" font-family="Times New Roman,serif" font-size="14.00">leaf 2: </text>
<text text-anchor="start" x="669.5" y="-53.95" font-family="Times New Roman,serif" font-weight="bold" font-size="14.00">&#45;1.028</text>
</g>
<!-- split6&#45;&gt;leaf2 -->
<g id="edge15" class="edge">
<title>split6&#45;&gt;leaf2</title>
<path fill="none" stroke="black" d="M551.32,-58C566.21,-58 581.65,-58 596.26,-58"/>
<polygon fill="black" stroke="black" points="596.25,-61.5 606.25,-58 596.25,-54.5 596.25,-61.5"/>
<text text-anchor="middle" x="571.37" y="-60.45" font-family="Times New Roman,serif" font-size="14.00">yes</text>
</g>
<!-- leaf7 -->
<g id="node19" class="node">
<title>leaf7</title>
<ellipse fill="none" stroke="black" cx="670.25" cy="-18" rx="62.1" ry="18"/>
<text text-anchor="start" x="632.75" y="-13.95" font-family="Times New Roman,serif" font-size="14.00">leaf 7: </text>
<text text-anchor="start" x="669.5" y="-13.95" font-family="Times New Roman,serif" font-weight="bold" font-size="14.00">&#45;0.939</text>
</g>
<!-- split6&#45;&gt;leaf7 -->
<g id="edge16" class="edge">
<title>split6&#45;&gt;leaf7</title>
<path fill="none" stroke="black" d="M551.32,-41.56C569.9,-37.85 589.33,-33.96 606.93,-30.45"/>
<polygon fill="black" stroke="black" points="607.6,-33.88 616.72,-28.49 606.23,-27.02 607.6,-33.88"/>
<text text-anchor="middle" x="571.37" y="-41.45" font-family="Times New Roman,serif" font-size="14.00">no</text>
</g>
</g>
</svg>
